<svg width="242" height="243" xmlns="http://www.w3.org/2000/svg" xmlns:xlink="http://www.w3.org/1999/xlink" xml:space="preserve" overflow="hidden"><defs><filter id="fx0" x="-10%" y="-10%" width="120%" height="120%" filterUnits="userSpaceOnUse" primitiveUnits="userSpaceOnUse"><feComponentTransfer color-interpolation-filters="sRGB"><feFuncR type="discrete" tableValues="0 0"/><feFuncG type="discrete" tableValues="0 0"/><feFuncB type="discrete" tableValues="0 0"/><feFuncA type="linear" slope="0.4" intercept="0"/></feComponentTransfer><feGaussianBlur stdDeviation="1.77778 1.77778"/></filter><clipPath id="clip1"><rect x="544" y="117" width="242" height="243"/></clipPath><clipPath id="clip2"><rect x="34" y="19" width="175" height="209"/></clipPath><clipPath id="clip3"><rect x="0" y="0" width="244" height="245"/></clipPath><clipPath id="clip4"><rect x="6" y="6" width="231" height="232"/></clipPath><clipPath id="clip5"><rect x="6" y="6" width="231" height="232"/></clipPath><clipPath id="clip6"><rect x="6" y="6" width="231" height="232"/></clipPath><clipPath id="clip7"><rect x="547" y="120" width="230" height="231"/></clipPath><clipPath id="clip8"><rect x="547" y="120" width="230" height="231"/></clipPath><clipPath id="clip9"><rect x="547" y="120" width="230" height="231"/></clipPath></defs><g clip-path="url(#clip1)" transform="translate(-544 -117)"><g clip-path="url(#clip2)" filter="url(#fx0)" transform="translate(543 116)"><g clip-path="url(#clip3)"><g clip-path="url(#clip4)"><g clip-path="url(#clip5)"><g clip-path="url(#clip6)"><path d="M178.49 92.0264C180.188 89.0718 181.554 85.9381 182.562 82.6826L193.104 77.4118 193.104 65.4326 182.562 60.1618C181.681 56.8989 180.394 53.7596 178.729 50.818L182.562 39.5576 173.937 30.9326 162.677 34.7659C159.737 33.0922 156.598 31.7956 153.333 30.9062L148.062 20.3646 136.083 20.3646 130.812 30.9062C127.549 31.7867 124.41 33.0745 121.469 34.7396L110.208 30.9062 101.583 39.5312 105.417 50.7917C103.752 53.7333 102.465 56.8725 101.583 60.1354L91.0417 65.4062 91.0417 77.3854 101.583 82.6562C102.465 85.9191 103.753 89.0582 105.417 92L101.583 103.26 109.969 111.646 121.229 107.812C124.171 109.477 127.31 110.765 130.573 111.646L135.844 122.187 147.823 122.187 153.094 111.646C156.357 110.765 159.496 109.477 162.438 107.812L173.698 111.646 182.323 103.26ZM173.952 93.5693 176.812 101.967 172.464 106.195 163.983 103.306 161.913 102.602 160.022 103.704C157.428 105.17 154.658 106.301 151.778 107.07L149.752 107.65 148.808 109.535 144.862 117.441 138.812 117.441 134.866 109.535 133.922 107.65 131.895 107.07C129.015 106.301 126.244 105.17 123.649 103.704L121.761 102.602 119.691 103.306 111.253 106.181 107.084 102.012 109.959 93.5717 110.664 91.5017 109.561 89.6137C108.099 87.0174 106.971 84.2454 106.207 81.3649L105.628 79.338 103.744 78.3965 95.8333 74.4457 95.8333 68.3867 103.74 64.4479 105.623 63.504 106.202 61.4771C106.967 58.5973 108.094 55.8265 109.557 53.2306L110.659 51.3403 109.954 49.2727 107.079 40.8298 111.488 36.4215 119.926 39.2965 121.996 40.0152 123.884 38.9107C126.48 37.4486 129.251 36.3216 132.13 35.5566L134.167 34.9432 135.111 33.0577 139.057 25.1515 145.113 25.1515 149.059 33.0577 150.003 34.9432 152.028 35.523C154.907 36.2875 157.678 37.4145 160.274 38.8772L162.164 39.9817 164.234 39.2629 172.67 36.3879 177.078 40.7962 174.203 49.2392 173.499 51.3068 174.601 53.1971C176.067 55.7927 177.198 58.5637 177.967 61.4435L178.545 63.4704 180.43 64.4144 188.336 68.3627 188.336 74.4218 180.43 78.3701 178.597 79.2877 177.994 81.2475C177.093 84.1582 175.874 86.9606 174.359 89.6042L173.257 91.4921Z" stroke="#4472C4" stroke-width="2.39576" fill="#FFC000" transform="matrix(1 0 0 1.00435 6.82843 6.82843)"/><path d="M36.8958 152.418 36.8958 164.397 47.4375 169.668C48.3187 172.931 49.6064 176.07 51.2708 179.012L47.6771 190.272 56.0625 198.658 67.3229 195.064C70.2643 196.729 73.4035 198.017 76.6667 198.897L81.9375 209.439 93.9167 209.439 99.1875 198.897C102.45 198.016 105.59 196.728 108.531 195.064L119.792 198.897 128.177 190.272 124.583 179.251C126.248 176.31 127.535 173.171 128.417 169.908L138.958 164.637 138.958 152.658 128.417 147.387C127.535 144.124 126.248 140.985 124.583 138.043L128.417 126.783 119.792 118.158 108.531 121.991C105.57 120.368 102.436 119.082 99.1875 118.158L93.9167 107.616 81.9375 107.616 76.6667 118.158C73.4035 119.038 70.2643 120.326 67.3229 121.991L56.0625 118.158 47.6771 126.543 51.2708 137.804C49.6477 140.765 48.3618 143.899 47.4375 147.147ZM51.4146 150.501 52.0183 148.542C52.8427 145.647 53.9803 142.85 55.4108 140.202L56.4842 138.359 55.8349 136.33 53.13 127.846 57.3419 123.632 65.78 126.507 67.85 127.214 69.7379 126.112C72.3328 124.645 75.1039 123.513 77.9844 122.746L80.0208 122.187 80.9648 120.302 84.9107 112.396 90.9674 112.396 94.9133 120.302 95.8309 122.137 97.7907 122.739C100.685 123.565 103.48 124.703 106.128 126.133L108.019 127.236 110.089 126.529 118.524 123.654 122.933 128.064 120.058 136.505 119.353 138.573 120.455 140.463C121.922 143.059 123.053 145.831 123.821 148.712L124.399 150.736 126.284 151.68 134.167 155.619 134.167 161.678 126.26 165.626 124.375 166.57 123.798 168.595C123.029 171.476 121.898 174.247 120.431 176.844L119.348 178.7 120.014 180.744 122.712 189.017 118.474 193.396 110.089 190.538 108.019 189.834 106.128 190.936C103.531 192.404 100.758 193.535 97.8746 194.302L95.8477 194.882 94.9061 196.767 90.9602 204.674 84.9035 204.674 80.9576 196.767 80.0136 194.882 77.9868 194.302C75.1063 193.534 72.3352 192.403 69.7403 190.936L67.9003 189.863 65.8686 190.509 57.3898 193.217 53.1324 188.959 55.8373 180.476 56.4866 178.446 55.4132 176.604C53.9463 174.009 52.8152 171.238 52.0471 168.358L51.4673 166.331 49.5842 165.387 41.6779 161.438 41.6779 155.379 49.5842 151.431Z" stroke="#4472C4" stroke-width="2.39576" fill="#FFC000" transform="matrix(1 0 0 1.00435 6.82843 6.82843)"/><path d="M142.073 53.4415C132.149 53.4415 124.104 61.4864 124.104 71.4102 124.104 81.334 132.149 89.379 142.073 89.379 151.997 89.379 160.042 81.334 160.042 71.4102 159.967 61.5173 151.966 53.5157 142.073 53.4415ZM142.073 84.5873C134.8 84.5768 128.906 78.6832 128.896 71.4102 128.993 64.1731 134.836 58.3299 142.073 58.2331 149.346 58.2437 155.239 64.1372 155.25 71.4102 155.16 78.6516 149.314 84.5013 142.073 84.5969Z" stroke="#4472C4" stroke-width="2.39576" fill="#FFC000" transform="matrix(1 0 0 1.00435 6.82843 6.82843)"/><path d="M87.9271 176.623C97.8509 176.623 105.896 168.578 105.896 158.654 105.896 148.731 97.8509 140.686 87.9271 140.686 78.0033 140.686 69.9583 148.731 69.9583 158.654 69.9464 168.567 77.9719 176.611 87.884 176.623 87.8983 176.623 87.9127 176.623 87.9271 176.623ZM87.9271 145.465C95.2047 145.465 101.104 151.365 101.104 158.643 101.104 165.92 95.2047 171.82 87.9271 171.82 80.6495 171.82 74.75 165.92 74.75 158.643 74.7605 151.369 80.654 145.476 87.9271 145.465Z" stroke="#4472C4" stroke-width="2.39576" fill="#FFC000" transform="matrix(1 0 0 1.00435 6.82843 6.82843)"/></g></g></g></g></g><g clip-path="url(#clip7)"><g clip-path="url(#clip8)"><g clip-path="url(#clip9)"><path d="M178.49 92.0264C180.188 89.0718 181.554 85.9381 182.562 82.6826L193.104 77.4118 193.104 65.4326 182.562 60.1618C181.681 56.8989 180.394 53.7596 178.729 50.818L182.562 39.5576 173.937 30.9326 162.677 34.7659C159.737 33.0922 156.598 31.7956 153.333 30.9062L148.062 20.3646 136.083 20.3646 130.812 30.9062C127.549 31.7867 124.41 33.0745 121.469 34.7396L110.208 30.9062 101.583 39.5312 105.417 50.7917C103.752 53.7333 102.465 56.8725 101.583 60.1354L91.0417 65.4062 91.0417 77.3854 101.583 82.6562C102.465 85.9191 103.753 89.0582 105.417 92L101.583 103.26 109.969 111.646 121.229 107.812C124.171 109.477 127.31 110.765 130.573 111.646L135.844 122.187 147.823 122.187 153.094 111.646C156.357 110.765 159.496 109.477 162.438 107.812L173.698 111.646 182.323 103.26ZM173.952 93.5693 176.812 101.967 172.464 106.195 163.983 103.306 161.913 102.602 160.022 103.704C157.428 105.17 154.658 106.301 151.778 107.07L149.752 107.65 148.808 109.535 144.862 117.441 138.812 117.441 134.866 109.535 133.922 107.65 131.895 107.07C129.015 106.301 126.244 105.17 123.649 103.704L121.761 102.602 119.691 103.306 111.253 106.181 107.084 102.012 109.959 93.5717 110.664 91.5017 109.561 89.6137C108.099 87.0174 106.971 84.2454 106.207 81.3649L105.628 79.338 103.744 78.3965 95.8333 74.4457 95.8333 68.3867 103.74 64.4479 105.623 63.504 106.202 61.4771C106.967 58.5973 108.094 55.8265 109.557 53.2306L110.659 51.3403 109.954 49.2727 107.079 40.8298 111.488 36.4215 119.926 39.2965 121.996 40.0152 123.884 38.9107C126.48 37.4486 129.251 36.3216 132.13 35.5566L134.167 34.9432 135.111 33.0577 139.057 25.1515 145.113 25.1515 149.059 33.0577 150.003 34.9432 152.028 35.523C154.907 36.2875 157.678 37.4145 160.274 38.8772L162.164 39.9817 164.234 39.2629 172.67 36.3879 177.078 40.7962 174.203 49.2392 173.499 51.3068 174.601 53.1971C176.067 55.7927 177.198 58.5637 177.967 61.4435L178.545 63.4704 180.43 64.4144 188.336 68.3627 188.336 74.4218 180.43 78.3701 178.597 79.2877 177.994 81.2475C177.093 84.1582 175.874 86.9606 174.359 89.6042L173.257 91.4921Z" stroke="#4472C4" stroke-width="2.39576" fill="#FFC000" transform="matrix(1 0 0 1.00435 547 120)"/><path d="M36.8958 152.418 36.8958 164.397 47.4375 169.668C48.3187 172.931 49.6064 176.07 51.2708 179.012L47.6771 190.272 56.0625 198.658 67.3229 195.064C70.2643 196.729 73.4035 198.017 76.6667 198.897L81.9375 209.439 93.9167 209.439 99.1875 198.897C102.45 198.016 105.59 196.728 108.531 195.064L119.792 198.897 128.177 190.272 124.583 179.251C126.248 176.31 127.535 173.171 128.417 169.908L138.958 164.637 138.958 152.658 128.417 147.387C127.535 144.124 126.248 140.985 124.583 138.043L128.417 126.783 119.792 118.158 108.531 121.991C105.57 120.368 102.436 119.082 99.1875 118.158L93.9167 107.616 81.9375 107.616 76.6667 118.158C73.4035 119.038 70.2643 120.326 67.3229 121.991L56.0625 118.158 47.6771 126.543 51.2708 137.804C49.6477 140.765 48.3618 143.899 47.4375 147.147ZM51.4146 150.501 52.0183 148.542C52.8427 145.647 53.9803 142.85 55.4108 140.202L56.4842 138.359 55.8349 136.33 53.13 127.846 57.3419 123.632 65.78 126.507 67.85 127.214 69.7379 126.112C72.3328 124.645 75.1039 123.513 77.9844 122.746L80.0208 122.187 80.9648 120.302 84.9107 112.396 90.9674 112.396 94.9133 120.302 95.8309 122.137 97.7907 122.739C100.685 123.565 103.48 124.703 106.128 126.133L108.019 127.236 110.089 126.529 118.524 123.654 122.933 128.064 120.058 136.505 119.353 138.573 120.455 140.463C121.922 143.059 123.053 145.831 123.821 148.712L124.399 150.736 126.284 151.68 134.167 155.619 134.167 161.678 126.26 165.626 124.375 166.57 123.798 168.595C123.029 171.476 121.898 174.247 120.431 176.844L119.348 178.7 120.014 180.744 122.712 189.017 118.474 193.396 110.089 190.538 108.019 189.834 106.128 190.936C103.531 192.404 100.758 193.535 97.8746 194.302L95.8477 194.882 94.9061 196.767 90.9602 204.674 84.9035 204.674 80.9576 196.767 80.0136 194.882 77.9868 194.302C75.1063 193.534 72.3352 192.403 69.7403 190.936L67.9003 189.863 65.8686 190.509 57.3898 193.217 53.1324 188.959 55.8373 180.476 56.4866 178.446 55.4132 176.604C53.9463 174.009 52.8152 171.238 52.0471 168.358L51.4673 166.331 49.5842 165.387 41.6779 161.438 41.6779 155.379 49.5842 151.431Z" stroke="#4472C4" stroke-width="2.39576" fill="#FFC000" transform="matrix(1 0 0 1.00435 547 120)"/><path d="M142.073 53.4415C132.149 53.4415 124.104 61.4864 124.104 71.4102 124.104 81.334 132.149 89.379 142.073 89.379 151.997 89.379 160.042 81.334 160.042 71.4102 159.967 61.5173 151.966 53.5157 142.073 53.4415ZM142.073 84.5873C134.8 84.5768 128.906 78.6832 128.896 71.4102 128.993 64.1731 134.836 58.3299 142.073 58.2331 149.346 58.2437 155.239 64.1372 155.25 71.4102 155.16 78.6516 149.314 84.5013 142.073 84.5969Z" stroke="#4472C4" stroke-width="2.39576" fill="#FFC000" transform="matrix(1 0 0 1.00435 547 120)"/><path d="M87.9271 176.623C97.8509 176.623 105.896 168.578 105.896 158.654 105.896 148.731 97.8509 140.686 87.9271 140.686 78.0033 140.686 69.9583 148.731 69.9583 158.654 69.9464 168.567 77.9719 176.611 87.884 176.623 87.8983 176.623 87.9127 176.623 87.9271 176.623ZM87.9271 145.465C95.2047 145.465 101.104 151.365 101.104 158.643 101.104 165.92 95.2047 171.82 87.9271 171.82 80.6495 171.82 74.75 165.92 74.75 158.643 74.7605 151.369 80.654 145.476 87.9271 145.465Z" stroke="#4472C4" stroke-width="2.39576" fill="#FFC000" transform="matrix(1 0 0 1.00435 547 120)"/></g></g></g></g></svg>